<svg xmlns="http://www.w3.org/2000/svg" width="1873" height="755" viewBox="0 0 1873 755">
  <defs>
    <style>
      .cls-1, .cls-2 {
        stroke: #000;
        stroke-width: 3px;
      }

      .cls-1 {
        fill-rule: evenodd;
      }
    </style>
  </defs>
  <path class="cls-1" d="M0,33.984C0,41,72.337,44.4,86.977,41.474l59.984-1.5c28.686-5.731,98.269-5.419,125.966,1.5h71.981c28,0,55.494,4.494,83.977,4.494h79.479l67.482-5.992c5.984,0,32.654,2.663,54.154.024,87.661,0,171.81-6.844,257.763,7.466,26.823,4.466,60.655.291,86.977-3l68.98-3c31.2-4.453,68.56-9.048,100.47-4.494,25.02,3.57,49.57,7.665,74.98,10.486h149.96c45.33,4.527,91.08,0,136.47,0l251.93-1.5,97.47-1.5,18-3V22H0"/>
  <rect class="cls-2" x="-32" y="-27" width="1980" height="59"/>
</svg>
